<svg class="svg-icon" style="width: 1em; height: 1em;vertical-align: middle;fill: currentColor;overflow: hidden;" viewBox="0 0 1024 1024" version="1.1" xmlns="http://www.w3.org/2000/svg"><path fill="white" d="M853.333333 896H170.666667c-72.533333 0-128-55.466667-128-128V256c0-72.533333 55.466667-128 128-128h682.666666c72.533333 0 128 55.466667 128 128v512c0 72.533333-55.466667 128-128 128zM183.466667 213.333333C153.6 213.333333 128 238.933333 128 268.8v486.4c0 29.866667 25.6 55.466667 55.466667 55.466667h657.066666c29.866667 0 55.466667-25.6 55.466667-55.466667V268.8c0-29.866667-25.6-55.466667-55.466667-55.466667H183.466667z"  /><path fill="white" d="M938.666667 704h-277.333334c-106.666667 0-192-85.333333-192-192s85.333333-192 192-192H938.666667c25.6 0 25.6 384 0 384z m-277.333334-298.666667c-59.733333 0-106.666667 46.933333-106.666666 106.666667s46.933333 106.666667 106.666666 106.666667H938.666667v-213.333334h-277.333334z"  /><path fill="white" d="M674.133333 512m-42.666666 0a42.666667 42.666667 0 1 0 85.333333 0 42.666667 42.666667 0 1 0-85.333333 0Z"  /></svg>